<svg width="90" height="90" viewBox="0 0 90 90" fill="none" xmlns="http://www.w3.org/2000/svg">
<g clip-path="url(#clip0)">
<path d="M23.1743 17.4374C22.677 17.4771 22.1843 17.3177 21.8045 16.9942C21.4248 16.6707 21.1891 16.2096 21.1493 15.7124C21.1095 15.2151 21.2689 14.7224 21.5924 14.3426C21.9159 13.9628 22.377 13.7271 22.8743 13.6874L57.9743 8.06235C58.2182 8.02223 58.4675 8.03071 58.7081 8.0873C58.9487 8.14389 59.1757 8.24748 59.376 8.3921C59.5764 8.53673 59.7462 8.71954 59.8757 8.93003C60.0052 9.14052 60.0918 9.37453 60.1306 9.6186C60.1707 9.86245 60.1622 10.1118 60.1056 10.3524C60.049 10.5929 59.9454 10.82 59.8008 11.0203C59.6562 11.2207 59.4734 11.3905 59.2629 11.52C59.0524 11.6495 58.8184 11.7361 58.5743 11.7749C20.4368 17.9061 23.3993 17.4374 23.1743 17.4374Z" fill="#B0B0B0"/>
<path d="M23.1367 27.2812C23.1189 27.0348 23.1499 26.7874 23.228 26.553C23.306 26.3187 23.4296 26.1021 23.5917 25.9157C23.7537 25.7292 23.951 25.5767 24.1721 25.4667C24.3933 25.3567 24.634 25.2916 24.8805 25.2749L57.7117 22.9312C57.9581 22.9133 58.2056 22.9443 58.4399 23.0224C58.6742 23.1005 58.8908 23.2241 59.0773 23.3861C59.2637 23.5481 59.4163 23.7454 59.5262 23.9666C59.6362 24.1878 59.7013 24.4285 59.718 24.6749C59.7358 24.9213 59.7048 25.1687 59.6268 25.4031C59.5487 25.6374 59.4251 25.854 59.2631 26.0404C59.101 26.2269 58.9038 26.3794 58.6826 26.4894C58.4614 26.5994 58.2207 26.6645 57.9742 26.6812L25.143 29.0249C24.8966 29.0428 24.6492 29.0118 24.4148 28.9337C24.1805 28.8556 23.9639 28.732 23.7775 28.57C23.591 28.408 23.4385 28.2107 23.3285 27.9895C23.2186 27.7683 23.1534 27.5276 23.1367 27.2812Z" fill="#B0B0B0"/>
<path d="M57.7682 56.5312C57.5054 56.5325 57.2452 56.4785 57.0046 56.3728C56.7639 56.2671 56.5482 56.112 56.3714 55.9175C56.1946 55.723 56.0607 55.4935 55.9783 55.2439C55.8959 54.9943 55.8669 54.7302 55.8932 54.4687L58.5932 28.6312C58.6429 28.1339 58.8882 27.6767 59.275 27.3603C59.6617 27.0438 60.1584 26.894 60.6557 26.9437C61.153 26.9934 61.6101 27.2386 61.9266 27.6254C62.2431 28.0122 62.3929 28.5089 62.3432 29.0062L59.6244 54.8437C59.5781 55.3046 59.3629 55.732 59.0201 56.0436C58.6774 56.3552 58.2314 56.5289 57.7682 56.5312Z" fill="#B0B0B0"/>
<path d="M80.9811 56.5312C80.5147 56.5335 80.0641 56.3619 79.7174 56.0499C79.3707 55.7379 79.1528 55.3078 79.1061 54.8437L76.4249 29.0062C76.3752 28.5089 76.525 28.0122 76.8415 27.6254C77.1579 27.2386 77.6151 26.9934 78.1124 26.9437C78.6097 26.894 79.1063 27.0438 79.4931 27.3603C79.8799 27.6767 80.1252 28.1339 80.1749 28.6312L82.8749 54.4687C82.9014 54.7318 82.8719 54.9975 82.7884 55.2484C82.7049 55.4993 82.5693 55.7297 82.3904 55.9245C82.2116 56.1193 81.9936 56.274 81.7507 56.3786C81.5078 56.4832 81.2455 56.5352 80.9811 56.5312Z" fill="#B0B0B0"/>
<path d="M69.375 50.625C65.6666 50.625 62.0415 51.7247 58.9581 53.7849C55.8746 55.8452 53.4714 58.7736 52.0523 62.1997C50.6331 65.6258 50.2618 69.3958 50.9853 73.0329C51.7088 76.6701 53.4945 80.011 56.1168 82.6333C58.739 85.2555 62.0799 87.0413 65.7171 87.7647C69.3542 88.4882 73.1242 88.1169 76.5503 86.6977C79.9764 85.2786 82.9048 82.8754 84.9651 79.7919C87.0253 76.7085 88.125 73.0834 88.125 69.375C88.125 64.4022 86.1496 59.6331 82.6333 56.1167C79.117 52.6004 74.3478 50.625 69.375 50.625ZM69.375 73.125C68.6333 73.125 67.9083 72.9051 67.2916 72.493C66.6749 72.081 66.1943 71.4953 65.9105 70.8101C65.6266 70.1248 65.5524 69.3708 65.6971 68.6434C65.8418 67.916 66.1989 67.2478 66.7234 66.7233C67.2478 66.1989 67.916 65.8417 68.6434 65.6971C69.3708 65.5524 70.1248 65.6266 70.8101 65.9104C71.4953 66.1943 72.081 66.6749 72.493 67.2916C72.9051 67.9083 73.125 68.6333 73.125 69.375C73.125 70.3696 72.7299 71.3234 72.0267 72.0267C71.3234 72.7299 70.3696 73.125 69.375 73.125Z" fill="#B0B0B0"/>
<path d="M14.9999 52.4999C14.58 52.4974 14.1732 52.3541 13.8445 52.0929C13.5157 51.8317 13.2842 51.4677 13.187 51.0592C13.0897 50.6508 13.1324 50.2215 13.3081 49.8402C13.4838 49.4589 13.7824 49.1476 14.1561 48.9562L36.6561 37.7062C36.8771 37.5732 37.123 37.4873 37.3787 37.4537C37.6343 37.4201 37.8941 37.4396 38.1419 37.511C38.3896 37.5824 38.62 37.7041 38.8186 37.8685C39.0172 38.033 39.1798 38.2366 39.2961 38.4667C39.4124 38.6968 39.4801 38.9484 39.4948 39.2058C39.5095 39.4633 39.4709 39.7209 39.3815 39.9628C39.2922 40.2046 39.1538 40.4254 38.9753 40.6114C38.7967 40.7974 38.5817 40.9445 38.3436 41.0437C13.6874 53.3812 15.6374 52.4999 14.9999 52.4999Z" fill="#3D3D3D"/>
<path d="M22.4996 67.4999C22.1028 67.5013 21.7158 67.3768 21.3943 67.1443C21.0727 66.9118 20.8332 66.5833 20.7102 66.206C20.5873 65.8287 20.5871 65.4222 20.7099 65.0448C20.8327 64.6675 21.072 64.3388 21.3934 64.1061L42.0184 49.1062C42.4212 48.8128 42.924 48.6914 43.4163 48.7688C43.9086 48.8461 44.35 49.1159 44.6434 49.5187C44.9368 49.9215 45.0581 50.4243 44.9808 50.9166C44.9034 51.4089 44.6337 51.8503 44.2309 52.1437C21.9559 68.3436 23.3809 67.4999 22.4996 67.4999Z" fill="#3D3D3D"/>
<path d="M30 62.0437V57.9562L26.8125 56.6812C26.5415 55.7502 26.1706 54.8512 25.7063 54L27.0563 50.8312L24.1688 47.9437L21 49.2938C20.1488 48.8294 19.2498 48.4585 18.3188 48.1875L17.0438 45H12.9563L11.6813 48.1875C10.7502 48.4585 9.85124 48.8294 9 49.2938L5.83125 47.9437L2.94375 50.8312L4.29375 54C3.82938 54.8512 3.45848 55.7502 3.1875 56.6812L0 57.9562V62.0437L3.1875 63.3187C3.45848 64.2498 3.82938 65.1488 4.29375 66L2.94375 69.1687L5.83125 72.0562L9 70.7062C9.85124 71.1706 10.7502 71.5415 11.6813 71.8125L12.9563 75H17.0438L18.3188 71.8125C19.2498 71.5415 20.1488 71.1706 21 70.7062L24.1688 72.0562L27.0563 69.1687L25.7063 66C26.1706 65.1488 26.5415 64.2498 26.8125 63.3187L30 62.0437ZM15 65.625C13.8875 65.625 12.7999 65.2951 11.8749 64.677C10.9499 64.0589 10.2289 63.1804 9.80318 62.1526C9.37744 61.1248 9.26604 59.9938 9.48308 58.9026C9.70013 57.8115 10.2359 56.8092 11.0225 56.0225C11.8092 55.2359 12.8115 54.7001 13.9026 54.4831C14.9938 54.266 16.1248 54.3774 17.1526 54.8032C18.1804 55.2289 19.0589 55.9499 19.677 56.8749C20.2951 57.7999 20.625 58.8875 20.625 60C20.625 61.4918 20.0324 62.9226 18.9775 63.9775C17.9226 65.0324 16.4918 65.625 15 65.625Z" fill="#5D7AFC"/>
<path d="M52.5 44.4V41.85L50.5125 41.0437C50.3398 40.4649 50.1073 39.9057 49.8187 39.375L50.625 37.5L48.75 35.625L46.875 36.4313C46.3443 36.1427 45.7851 35.9102 45.2063 35.7375L44.4 33.75H41.85L41.0437 35.7375C40.4649 35.9102 39.9057 36.1427 39.375 36.4313L37.5 35.625L35.625 37.5L36.4313 39.375C36.1427 39.9057 35.9102 40.4649 35.7375 41.0437L33.75 41.85V44.4L35.7375 45.2063C35.9102 45.7851 36.1427 46.3443 36.4313 46.875L35.625 48.8437L37.5 50.7187L39.375 49.8187C39.9057 50.1073 40.4649 50.3398 41.0437 50.5125L41.85 52.5H44.4L45.2063 50.5125C45.7851 50.3398 46.3443 50.1073 46.875 49.8187L48.8437 50.6625L50.7187 48.7875L49.8187 46.875C50.1073 46.3443 50.3398 45.7851 50.5125 45.2063L52.5 44.4ZM43.125 46.875C42.3833 46.875 41.6583 46.6551 41.0416 46.243C40.4249 45.831 39.9443 45.2453 39.6605 44.5601C39.3766 43.8748 39.3024 43.1208 39.4471 42.3934C39.5917 41.666 39.9489 40.9978 40.4734 40.4734C40.9978 39.9489 41.666 39.5917 42.3934 39.4471C43.1208 39.3024 43.8748 39.3766 44.5601 39.6605C45.2453 39.9443 45.831 40.4249 46.243 41.0416C46.6551 41.6583 46.875 42.3833 46.875 43.125C46.875 44.1196 46.4799 45.0734 45.7766 45.7766C45.0734 46.4799 44.1196 46.875 43.125 46.875Z" fill="#B0B0B0"/>
<path d="M69.375 90C65.2958 90 61.3081 88.7904 57.9164 86.5241C54.5246 84.2578 51.8811 81.0366 50.32 77.2679C48.7589 73.4991 48.3505 69.3521 49.1463 65.3513C49.9421 61.3504 51.9065 57.6754 54.7909 54.7909C57.6754 51.9065 61.3504 49.9421 65.3513 49.1463C69.3521 48.3505 73.4991 48.7589 77.2679 50.32C81.0366 51.8811 84.2578 54.5246 86.5241 57.9164C88.7904 61.3081 90 65.2958 90 69.375C90 74.8451 87.827 80.0911 83.9591 83.9591C80.0911 87.827 74.8451 90 69.375 90ZM69.375 52.5C66.0374 52.5 62.7748 53.4897 59.9998 55.344C57.2247 57.1982 55.0618 59.8337 53.7845 62.9172C52.5073 66.0007 52.1731 69.3937 52.8243 72.6672C53.4754 75.9406 55.0826 78.9474 57.4426 81.3074C59.8026 83.6674 62.8094 85.2746 66.0829 85.9258C69.3563 86.5769 72.7493 86.2427 75.8328 84.9655C78.9163 83.6882 81.5518 81.5253 83.4061 78.7503C85.2603 75.9752 86.25 72.7126 86.25 69.375C86.25 64.8995 84.4721 60.6073 81.3074 57.4426C78.1428 54.2779 73.8505 52.5 69.375 52.5Z" fill="#3D3D3D"/>
<path d="M69.375 75C68.2625 75 67.175 74.6701 66.2499 74.052C65.3249 73.434 64.6039 72.5554 64.1782 71.5276C63.7524 70.4998 63.641 69.3688 63.8581 68.2776C64.0751 67.1865 64.6109 66.1842 65.3975 65.3975C66.1842 64.6109 67.1865 64.0751 68.2776 63.8581C69.3688 63.641 70.4998 63.7524 71.5276 64.1782C72.5554 64.6039 73.4339 65.3249 74.052 66.2499C74.6701 67.175 75 68.2625 75 69.375C75 70.8669 74.4074 72.2976 73.3525 73.3525C72.2976 74.4074 70.8669 75 69.375 75ZM69.375 67.5C69.0042 67.5 68.6417 67.61 68.3333 67.816C68.025 68.022 67.7847 68.3149 67.6427 68.6575C67.5008 69.0001 67.4637 69.3771 67.536 69.7408C67.6084 70.1045 67.787 70.4386 68.0492 70.7008C68.3114 70.9631 68.6455 71.1416 69.0092 71.214C69.3729 71.2863 69.7499 71.2492 70.0925 71.1073C70.4352 70.9654 70.728 70.7251 70.934 70.4167C71.14 70.1084 71.25 69.7459 71.25 69.375C71.25 68.8777 71.0525 68.4008 70.7008 68.0492C70.3492 67.6976 69.8723 67.5 69.375 67.5Z" fill="#3D3D3D"/>
<path d="M56.7187 65.9627C56.8803 65.5179 57.204 65.1506 57.625 64.9346C58.046 64.7186 58.5332 64.6697 58.9887 64.7978C59.4442 64.9259 59.8345 65.2216 60.0812 65.6254C60.3278 66.0292 60.4127 66.5114 60.3187 66.9752C59.9005 68.5604 59.9053 70.2277 60.3327 71.8105C60.7601 73.3933 61.5951 74.8364 62.7545 75.9957C63.9138 77.155 65.3568 77.99 66.9396 78.4174C68.5225 78.8448 70.1897 78.8496 71.775 78.4314C72.2387 78.3374 72.7209 78.4223 73.1247 78.669C73.5286 78.9156 73.8242 79.3059 73.9523 79.7614C74.0804 80.217 74.0316 80.7041 73.8155 81.1251C73.5995 81.5461 73.2322 81.8699 72.7875 82.0314C70.5631 82.6259 68.2214 82.6248 65.9976 82.0281C63.7737 81.4315 61.746 80.2603 60.1179 78.6322C58.4898 77.0041 57.3187 74.9764 56.722 72.7526C56.1254 70.5287 56.1242 68.1871 56.7187 65.9627Z" fill="#3D3D3D"/>
<path d="M80.2308 74.1563C79.9355 74.1674 79.6419 74.1085 79.3737 73.9844C79.1055 73.8604 78.8705 73.6747 78.6877 73.4426C78.5049 73.2104 78.3795 72.9384 78.3219 72.6486C78.2642 72.3588 78.2758 72.0595 78.3558 71.7751C78.774 70.1898 78.7692 68.5226 78.3418 66.9398C77.9144 65.3569 77.0794 63.9139 75.9201 62.7546C74.7607 61.5953 73.3177 60.7603 71.7349 60.3329C70.1521 59.9055 68.4848 59.9006 66.8996 60.3188C66.4222 60.4517 65.9117 60.3902 65.4795 60.1477C65.0474 59.9053 64.7288 59.5017 64.5933 59.0251C64.4605 58.5477 64.522 58.0372 64.7644 57.605C65.0068 57.1729 65.4104 56.8543 65.8871 56.7188C68.1115 56.1243 70.4531 56.1255 72.6769 56.7221C74.9008 57.3188 76.9285 58.4899 78.5566 60.118C80.1847 61.7461 81.3559 63.7739 81.9525 65.9977C82.5491 68.2215 82.5503 70.5632 81.9558 72.7876C81.8494 73.1685 81.6252 73.506 81.3154 73.7519C81.0056 73.9977 80.626 74.1393 80.2308 74.1563Z" fill="#3D3D3D"/>
<path d="M16.875 33.75C14.65 33.75 12.4749 33.0902 10.6248 31.854C8.77479 30.6179 7.33285 28.8609 6.48136 26.8052C5.62987 24.7495 5.40709 22.4875 5.84117 20.3052C6.27525 18.123 7.34671 16.1184 8.92005 14.5451C10.4934 12.9717 12.498 11.9003 14.6802 11.4662C16.8625 11.0321 19.1245 11.2549 21.1802 12.1064C23.2359 12.9578 24.9929 14.3998 26.229 16.2498C27.4652 18.0999 28.125 20.275 28.125 22.5C28.125 25.4837 26.9397 28.3452 24.83 30.455C22.7202 32.5647 19.8587 33.75 16.875 33.75ZM16.875 15C15.3916 15 13.9416 15.4399 12.7082 16.264C11.4749 17.0881 10.5136 18.2594 9.94591 19.6299C9.37825 21.0003 9.22973 22.5083 9.51912 23.9632C9.80851 25.418 10.5228 26.7544 11.5717 27.8033C12.6206 28.8522 13.957 29.5665 15.4118 29.8559C16.8667 30.1453 18.3747 29.9968 19.7451 29.4291C21.1156 28.8614 22.2869 27.9001 23.111 26.6668C23.9351 25.4334 24.375 23.9834 24.375 22.5C24.375 20.5109 23.5848 18.6032 22.1783 17.1967C20.7718 15.7902 18.8641 15 16.875 15Z" fill="#3D3D3D"/>
<path d="M16.875 26.25C18.9461 26.25 20.625 24.5711 20.625 22.5C20.625 20.4289 18.9461 18.75 16.875 18.75C14.8039 18.75 13.125 20.4289 13.125 22.5C13.125 24.5711 14.8039 26.25 16.875 26.25Z" fill="#B0B0B0"/>
<path d="M71.4188 33.75H67.3313C66.9557 33.7504 66.5887 33.638 66.2778 33.4273C65.9669 33.2167 65.7264 32.9176 65.5875 32.5688L64.6313 30.2063C64.1813 30.0375 63.7312 29.85 63.3 29.6438L60.9562 30.6562C60.6124 30.8039 60.2323 30.8453 59.8647 30.7752C59.4972 30.705 59.159 30.5264 58.8938 30.2625L55.9875 27.3563C55.7236 27.091 55.545 26.7528 55.4748 26.3853C55.4047 26.0177 55.4461 25.6376 55.5938 25.2937L56.6063 22.95C56.4 22.5187 56.2125 22.0688 56.0437 21.6187L53.6812 20.625C53.3324 20.4861 53.0333 20.2456 52.8227 19.9347C52.612 19.6238 52.4996 19.2568 52.5 18.8812V14.8312C52.5071 14.4621 52.6229 14.1033 52.833 13.7998C53.0432 13.4963 53.3382 13.2615 53.6812 13.125L56.0437 12.1687C56.2125 11.7188 56.4 11.2688 56.6063 10.8375L55.5938 8.49375C55.4461 8.14992 55.4047 7.76977 55.4748 7.40221C55.545 7.03465 55.7236 6.6965 55.9875 6.43125L58.8938 3.525C59.159 3.26105 59.4972 3.08251 59.8647 3.01234C60.2323 2.94217 60.6124 2.98358 60.9562 3.13125L63.3 4.14375C63.7312 3.9375 64.1813 3.75 64.6313 3.58125L65.625 1.18125C65.7615 0.838249 65.9963 0.543185 66.2998 0.333047C66.6033 0.12291 66.9621 0.00705284 67.3313 0L71.4188 0C71.7879 0.00705284 72.1467 0.12291 72.4502 0.333047C72.7537 0.543185 72.9885 0.838249 73.125 1.18125L74.0812 3.54375C74.5312 3.7125 74.9813 3.9 75.4125 4.10625L77.7563 3.09375C78.1001 2.94608 78.4802 2.90467 78.8478 2.97484C79.2153 3.04501 79.5535 3.22355 79.8187 3.4875L82.725 6.39375C82.9889 6.659 83.1675 6.99715 83.2377 7.36471C83.3078 7.73227 83.2664 8.11242 83.1188 8.45625L82.1063 10.8C82.3125 11.2313 82.5 11.6812 82.6688 12.1312L85.0687 13.125C85.4176 13.2639 85.7167 13.5044 85.9273 13.8153C86.138 14.1262 86.2504 14.4932 86.25 14.8687V18.9562C86.2504 19.3318 86.138 19.6988 85.9273 20.0097C85.7167 20.3206 85.4176 20.5611 85.0687 20.7L82.7063 21.6562C82.5375 22.1063 82.35 22.5562 82.1438 22.9875L83.1562 25.3313C83.3039 25.6751 83.3453 26.0552 83.2752 26.4228C83.205 26.7903 83.0264 27.1285 82.7625 27.3937L79.8563 30.3C79.591 30.5639 79.2528 30.7425 78.8853 30.8127C78.5177 30.8828 78.1376 30.8414 77.7938 30.6938L75.45 29.6812C75.0188 29.8875 74.5687 30.075 74.1187 30.2437L73.125 32.5688C72.9885 32.9118 72.7537 33.2068 72.4502 33.417C72.1467 33.6271 71.7879 33.7429 71.4188 33.75ZM68.6063 30H70.1437C71.025 27.7875 71.1375 27.1688 72.1875 26.8687C75.9375 25.8188 73.875 24.9 78.1125 26.7L79.2 25.6125L78.3563 23.6063C77.8125 22.3313 78.7125 21.9937 79.3688 19.6875C79.6875 18.6187 80.325 18.525 82.5 17.6437V16.1063C80.2875 15.225 79.6688 15.1125 79.3688 14.0625C78.3375 10.4062 77.4938 12.3563 79.2 8.1375L78.1125 7.05L76.1063 7.89375C74.8313 8.4375 74.5312 7.5375 72.1875 6.88125C71.1187 6.5625 71.025 5.925 70.1437 3.75H68.6063C67.725 5.9625 67.6125 6.58125 66.5625 6.88125C62.8125 7.9125 64.8563 8.75625 60.6375 7.05L59.55 8.1375L60.3937 10.1437C60.9375 11.4187 60.0375 11.7563 59.3813 14.0625C59.0625 15.1313 58.425 15.225 56.25 16.1063V17.6437C58.4625 18.525 59.0813 18.6375 59.3813 19.6875C60.4125 23.3438 61.2563 21.3937 59.55 25.6125L60.6375 26.7L62.6438 25.8563C63.9 25.3125 64.2563 26.2125 66.5625 26.8687C67.6313 27.1875 67.725 27.825 68.6063 30Z" fill="#3D3D3D"/>
<path d="M69.375 22.5C68.2625 22.5 67.175 22.1701 66.2499 21.552C65.3249 20.9339 64.6039 20.0554 64.1782 19.0276C63.7524 17.9998 63.641 16.8688 63.8581 15.7776C64.0751 14.6865 64.6109 13.6842 65.3975 12.8975C66.1842 12.1109 67.1865 11.5751 68.2776 11.3581C69.3688 11.141 70.4998 11.2524 71.5276 11.6782C72.5554 12.1039 73.4339 12.8249 74.052 13.7499C74.6701 14.6749 75 15.7625 75 16.875C75 18.3668 74.4074 19.7976 73.3525 20.8525C72.2976 21.9074 70.8669 22.5 69.375 22.5ZM69.375 15C69.0042 15 68.6417 15.11 68.3333 15.316C68.025 15.522 67.7847 15.8149 67.6427 16.1575C67.5008 16.5001 67.4637 16.8771 67.536 17.2408C67.6084 17.6045 67.787 17.9386 68.0492 18.2008C68.3114 18.463 68.6455 18.6416 69.0092 18.714C69.3729 18.7863 69.7499 18.7492 70.0925 18.6073C70.4352 18.4654 70.728 18.225 70.934 17.9167C71.14 17.6084 71.25 17.2458 71.25 16.875C71.25 16.3777 71.0525 15.9008 70.7008 15.5492C70.3492 15.1975 69.8723 15 69.375 15Z" fill="#3D3D3D"/>
</g>
<defs>
<clipPath id="clip0">
<rect width="90" height="90" fill="white"/>
</clipPath>
</defs>
</svg>
