<svg width="94" height="90" viewBox="0 0 94 90" fill="none" xmlns="http://www.w3.org/2000/svg">
<g clip-path="url(#clip0)">
<path d="M91.2445 24.375H71.8308V1.875H87.3618L91.2445 5.625V24.375Z" fill="#B0B0B0"/>
<path d="M67.948 46.875H56.2998V54.375H67.948V46.875Z" fill="#B0B0B0"/>
<path d="M67.948 80.625H56.2998V88.125H67.948V80.625Z" fill="#B0B0B0"/>
<path d="M27.0238 13.8375C27.1725 13.496 27.2131 13.1197 27.1405 12.756C27.068 12.3922 26.8855 12.0574 26.6161 11.7937L22.7334 8.04373C22.3678 7.69066 21.872 7.49231 21.355 7.49231C20.838 7.49231 20.3422 7.69066 19.9766 8.04373C19.611 8.3968 19.4057 8.87567 19.4057 9.37498C19.4057 9.8743 19.611 10.3532 19.9766 10.7062L20.559 11.25H15.5309C13.4713 11.25 11.4962 12.0402 10.0398 13.4467C8.58353 14.8532 7.76538 16.7609 7.76538 18.75V28.125C7.76538 28.6223 7.96992 29.0992 8.334 29.4508C8.69807 29.8024 9.19187 30 9.70675 30C10.2216 30 10.7154 29.8024 11.0795 29.4508C11.4436 29.0992 11.6481 28.6223 11.6481 28.125V18.75C11.6481 17.7554 12.0572 16.8016 12.7854 16.0983C13.5135 15.3951 14.5011 15 15.5309 15H20.559L19.9766 15.5437C19.611 15.8968 19.4057 16.3757 19.4057 16.875C19.4057 17.3743 19.611 17.8532 19.9766 18.2062C20.3422 18.5593 20.838 18.7577 21.355 18.7577C21.872 18.7577 22.3678 18.5593 22.7334 18.2062C26.7714 14.2875 26.8102 14.3437 27.0238 13.8375Z" fill="#B0B0B0"/>
<path d="M15.531 33.75H0V56.25H19.4137V37.5L15.531 33.75ZM11.6482 50.625H7.76549C7.2506 50.625 6.75681 50.4275 6.39273 50.0758C6.02865 49.7242 5.82411 49.2473 5.82411 48.75C5.82411 48.2527 6.02865 47.7758 6.39273 47.4242C6.75681 47.0725 7.2506 46.875 7.76549 46.875H11.6482C12.1631 46.875 12.6569 47.0725 13.021 47.4242C13.3851 47.7758 13.5896 48.2527 13.5896 48.75C13.5896 49.2473 13.3851 49.7242 13.021 50.0758C12.6569 50.4275 12.1631 50.625 11.6482 50.625ZM11.6482 43.125H7.76549C7.2506 43.125 6.75681 42.9275 6.39273 42.5758C6.02865 42.2242 5.82411 41.7473 5.82411 41.25C5.82411 40.7527 6.02865 40.2758 6.39273 39.9242C6.75681 39.5725 7.2506 39.375 7.76549 39.375H11.6482C12.1631 39.375 12.6569 39.5725 13.021 39.9242C13.3851 40.2758 13.5896 40.7527 13.5896 41.25C13.5896 41.7473 13.3851 42.2242 13.021 42.5758C12.6569 42.9275 12.1631 43.125 11.6482 43.125Z" fill="#5D7AFC"/>
<path d="M40.7688 11.25H44.6515C45.1664 11.25 45.6602 11.0525 46.0243 10.7008C46.3884 10.3492 46.5929 9.87228 46.5929 9.375C46.5929 8.87772 46.3884 8.40081 46.0243 8.04918C45.6602 7.69754 45.1664 7.5 44.6515 7.5H40.7688C40.2539 7.5 39.7601 7.69754 39.396 8.04918C39.0319 8.40081 38.8274 8.87772 38.8274 9.375C38.8274 9.87228 39.0319 10.3492 39.396 10.7008C39.7601 11.0525 40.2539 11.25 40.7688 11.25Z" fill="#3D3D3D"/>
<path d="M46.5929 16.875C46.5929 16.3777 46.3884 15.9008 46.0243 15.5492C45.6602 15.1975 45.1664 15 44.6515 15H40.7688C40.2539 15 39.7601 15.1975 39.396 15.5492C39.0319 15.9008 38.8274 16.3777 38.8274 16.875C38.8274 17.3723 39.0319 17.8492 39.396 18.2008C39.7601 18.5525 40.2539 18.75 40.7688 18.75H44.6515C45.1664 18.75 45.6602 18.5525 46.0243 18.2008C46.3884 17.8492 46.5929 17.3723 46.5929 16.875Z" fill="#3D3D3D"/>
<path d="M92.6229 4.29375C88.4489 0.2625 88.4295 0 87.3618 0H71.8308C71.3159 0 70.8221 0.197544 70.4581 0.549175C70.094 0.900806 69.8894 1.37772 69.8894 1.875V24.375C69.8894 24.8723 70.094 25.3492 70.4581 25.7008C70.8221 26.0525 71.3159 26.25 71.8308 26.25H79.5963V33.75H44.6516V26.25H52.4171C52.932 26.25 53.4258 26.0525 53.7899 25.7008C54.1539 25.3492 54.3585 24.8723 54.3585 24.375V5.625C54.3599 5.37824 54.311 5.13362 54.2144 4.90518C54.1178 4.67673 53.9754 4.46895 53.7955 4.29375C49.6215 0.2625 49.6021 0 48.5344 0H33.0034C32.4885 0 31.9947 0.197544 31.6306 0.549175C31.2665 0.900806 31.062 1.37772 31.062 1.875V24.375C31.062 24.8723 31.2665 25.3492 31.6306 25.7008C31.9947 26.0525 32.4885 26.25 33.0034 26.25H40.7689V35.625C40.7689 36.1223 40.9734 36.5992 41.3375 36.9508C41.7016 37.3025 42.1954 37.5 42.7102 37.5H60.1826V45H56.2998C55.785 45 55.2912 45.1975 54.9271 45.5492C54.563 45.9008 54.3585 46.3777 54.3585 46.875V48.75H41.7396C38.9077 48.75 36.1918 49.8365 34.1894 51.7705C32.187 53.7044 31.062 56.3275 31.062 59.0625C31.062 61.7975 32.187 64.4206 34.1894 66.3545C36.1918 68.2885 38.9077 69.375 41.7396 69.375H43.8556L43.2732 69.9188C42.9077 70.2718 42.7023 70.7507 42.7023 71.25C42.7023 71.7493 42.9077 72.2282 43.2732 72.5812C43.6388 72.9343 44.1346 73.1327 44.6516 73.1327C45.1686 73.1327 45.6644 72.9343 46.03 72.5812C50.3592 68.4 50.1069 68.7188 50.3204 68.2125C50.4691 67.871 50.5097 67.4947 50.4371 67.131C50.3646 66.7672 50.1821 66.4324 49.9127 66.1688L46.03 62.4188C45.6644 62.0657 45.1686 61.8673 44.6516 61.8673C44.1346 61.8673 43.6388 62.0657 43.2732 62.4188C42.9077 62.7718 42.7023 63.2507 42.7023 63.75C42.7023 64.2493 42.9077 64.7282 43.2732 65.0812L43.8556 65.625H41.7396C39.9375 65.625 38.2092 64.9336 36.9349 63.7029C35.6606 62.4722 34.9448 60.803 34.9448 59.0625C34.9448 57.322 35.6606 55.6528 36.9349 54.4221C38.2092 53.1914 39.9375 52.5 41.7396 52.5H54.3585V54.375C54.3585 54.8723 54.563 55.3492 54.9271 55.7008C55.2912 56.0525 55.785 56.25 56.2998 56.25H67.9481C68.463 56.25 68.9567 56.0525 69.3208 55.7008C69.6849 55.3492 69.8894 54.8723 69.8894 54.375V46.875C69.8894 46.3777 69.6849 45.9008 69.3208 45.5492C68.9567 45.1975 68.463 45 67.9481 45H64.0653V37.5H81.5377C82.0526 37.5 82.5463 37.3025 82.9104 36.9508C83.2745 36.5992 83.479 36.1223 83.479 35.625V26.25H91.2445C91.7594 26.25 92.2532 26.0525 92.6173 25.7008C92.9814 25.3492 93.1859 24.8723 93.1859 24.375V5.625C93.1874 5.37824 93.1384 5.13362 93.0418 4.90518C92.9452 4.67673 92.8028 4.46895 92.6229 4.29375ZM34.9448 22.5V3.75H47.7384L50.4757 6.39375V22.5H34.9448ZM66.0067 48.75V52.5H58.2412V48.75H66.0067ZM89.3032 22.5H73.7722V3.75H86.5658L89.3032 6.39375V22.5Z" fill="#3D3D3D"/>
<path d="M83.4789 7.5H79.5962C79.0813 7.5 78.5875 7.69754 78.2234 8.04918C77.8593 8.40081 77.6548 8.87772 77.6548 9.375C77.6548 9.87228 77.8593 10.3492 78.2234 10.7008C78.5875 11.0525 79.0813 11.25 79.5962 11.25H83.4789C83.9938 11.25 84.4876 11.0525 84.8517 10.7008C85.2157 10.3492 85.4203 9.87228 85.4203 9.375C85.4203 8.87772 85.2157 8.40081 84.8517 8.04918C84.4876 7.69754 83.9938 7.5 83.4789 7.5Z" fill="#3D3D3D"/>
<path d="M83.4789 15H79.5962C79.0813 15 78.5875 15.1975 78.2234 15.5492C77.8593 15.9008 77.6548 16.3777 77.6548 16.875C77.6548 17.3723 77.8593 17.8492 78.2234 18.2008C78.5875 18.5525 79.0813 18.75 79.5962 18.75H83.4789C83.9938 18.75 84.4876 18.5525 84.8517 18.2008C85.2157 17.8492 85.4203 17.3723 85.4203 16.875C85.4203 16.3777 85.2157 15.9008 84.8517 15.5492C84.4876 15.1975 83.9938 15 83.4789 15Z" fill="#3D3D3D"/>
<path d="M67.948 78.75H56.2998C55.7849 78.75 55.2911 78.9475 54.927 79.2992C54.5629 79.6508 54.3584 80.1277 54.3584 80.625V88.125C54.3584 88.6223 54.5629 89.0992 54.927 89.4508C55.2911 89.8025 55.7849 90 56.2998 90H67.948C68.4629 90 68.9567 89.8025 69.3208 89.4508C69.6848 89.0992 69.8894 88.6223 69.8894 88.125V80.625C69.8894 80.1277 69.6848 79.6508 69.3208 79.2992C68.9567 78.9475 68.4629 78.75 67.948 78.75ZM66.0066 86.25H58.2411V82.5H66.0066V86.25Z" fill="#3D3D3D"/>
<path d="M82.5083 65.625H69.8894V63.75C69.8894 63.2527 69.6848 62.7758 69.3208 62.4242C68.9567 62.0725 68.4629 61.875 67.948 61.875H56.2998C55.7849 61.875 55.2911 62.0725 54.927 62.4242C54.5629 62.7758 54.3584 63.2527 54.3584 63.75V71.25C54.3584 71.7473 54.5629 72.2242 54.927 72.5758C55.2911 72.9275 55.7849 73.125 56.2998 73.125H67.948C68.4629 73.125 68.9567 72.9275 69.3208 72.5758C69.6848 72.2242 69.8894 71.7473 69.8894 71.25V69.375H82.5083C84.3104 69.375 86.0387 70.0664 87.3129 71.2971C88.5872 72.5278 89.3031 74.197 89.3031 75.9375C89.3031 77.678 88.5872 79.3472 87.3129 80.5779C86.0387 81.8086 84.3104 82.5 82.5083 82.5H80.3922L80.9746 81.9563C81.3402 81.6032 81.5455 81.1243 81.5455 80.625C81.5455 80.1257 81.3402 79.6468 80.9746 79.2938C80.609 78.9407 80.1132 78.7423 79.5962 78.7423C79.0792 78.7423 78.5834 78.9407 78.2179 79.2938L74.3351 83.0438C74.0657 83.3074 73.8832 83.6422 73.8107 84.006C73.7381 84.3697 73.7788 84.7461 73.9274 85.0875C74.1604 85.6125 73.9274 85.2938 78.2179 89.4563C78.3989 89.6311 78.6138 89.7698 78.8503 89.8644C79.0868 89.959 79.3402 90.0077 79.5962 90.0077C79.8522 90.0077 80.1057 89.959 80.3422 89.8644C80.5787 89.7698 80.7936 89.6311 80.9746 89.4563C81.1556 89.2814 81.2992 89.0739 81.3972 88.8455C81.4951 88.6171 81.5455 88.3722 81.5455 88.125C81.5455 87.8778 81.4951 87.633 81.3972 87.4045C81.2992 87.1761 81.1556 86.9686 80.9746 86.7938L80.3922 86.25H82.5083C85.3401 86.25 88.056 85.1635 90.0585 83.2295C92.0609 81.2956 93.1858 78.6726 93.1858 75.9375C93.1858 73.2025 92.0609 70.5794 90.0585 68.6455C88.056 66.7115 85.3401 65.625 82.5083 65.625ZM66.0066 69.375H58.2411V65.625H66.0066V69.375Z" fill="#3D3D3D"/>
</g>
<defs>
<clipPath id="clip0">
<rect width="93.1858" height="90" fill="white"/>
</clipPath>
</defs>
</svg>
