<svg width="67" height="97" viewBox="0 0 67 97" fill="none" xmlns="http://www.w3.org/2000/svg">
<path d="M7.37502 9.5022H1.475C1.08381 9.5022 0.708635 9.33534 0.432019 9.03834C0.155402 8.74134 0 8.33852 0 7.9185V1.5837C0 1.16368 0.155402 0.760856 0.432019 0.463855C0.708635 0.166854 1.08381 0 1.475 0L7.37502 0C7.76621 0 8.14139 0.166854 8.418 0.463855C8.69462 0.760856 8.85002 1.16368 8.85002 1.5837V7.9185C8.85002 8.33852 8.69462 8.74134 8.418 9.03834C8.14139 9.33534 7.76621 9.5022 7.37502 9.5022ZM2.95001 6.3348H5.90001V3.1674H2.95001V6.3348Z" fill="#5D7AFC"/>
<path d="M45.7251 9.5022H39.8251C39.4339 9.5022 39.0587 9.33534 38.7821 9.03834C38.5055 8.74134 38.3501 8.33852 38.3501 7.9185V1.5837C38.3501 1.16368 38.5055 0.760856 38.7821 0.463855C39.0587 0.166854 39.4339 0 39.8251 0L45.7251 0C46.1163 0 46.4915 0.166854 46.7681 0.463855C47.0447 0.760856 47.2001 1.16368 47.2001 1.5837V7.9185C47.2001 8.33852 47.0447 8.74134 46.7681 9.03834C46.4915 9.33534 46.1163 9.5022 45.7251 9.5022ZM41.3001 6.3348H44.2501V3.1674H41.3001V6.3348Z" fill="#5D7AFC"/>
<path d="M16.2251 6.33484H13.2751C12.8839 6.33484 12.5087 6.16799 12.2321 5.87099C11.9555 5.57399 11.8 5.17118 11.8 4.75116C11.8 4.33114 11.9555 3.92833 12.2321 3.63133C12.5087 3.33433 12.8839 3.16748 13.2751 3.16748H16.2251C16.6163 3.16748 16.9914 3.33433 17.268 3.63133C17.5447 3.92833 17.7001 4.33114 17.7001 4.75116C17.7001 5.17118 17.5447 5.57399 17.268 5.87099C16.9914 6.16799 16.6163 6.33484 16.2251 6.33484Z" fill="#3D3D3D"/>
<path d="M33.925 6.33484H30.975C30.5838 6.33484 30.2086 6.16799 29.932 5.87099C29.6554 5.57399 29.5 5.17118 29.5 4.75116C29.5 4.33114 29.6554 3.92833 29.932 3.63133C30.2086 3.33433 30.5838 3.16748 30.975 3.16748H33.925C34.3162 3.16748 34.6914 3.33433 34.968 3.63133C35.2446 3.92833 35.4 4.33114 35.4 4.75116C35.4 5.17118 35.2446 5.57399 34.968 5.87099C34.6914 6.16799 34.3162 6.33484 33.925 6.33484Z" fill="#3D3D3D"/>
<path d="M25.0752 6.33484H22.1251C21.734 6.33484 21.3588 6.16799 21.0822 5.87099C20.8055 5.57399 20.6501 5.17118 20.6501 4.75116C20.6501 4.33114 20.8055 3.92833 21.0822 3.63133C21.3588 3.33433 21.734 3.16748 22.1251 3.16748H25.0752C25.4663 3.16748 25.8415 3.33433 26.1181 3.63133C26.3948 3.92833 26.5502 4.33114 26.5502 4.75116C26.5502 5.17118 26.3948 5.57399 26.1181 5.87099C25.8415 6.16799 25.4663 6.33484 25.0752 6.33484Z" fill="#3D3D3D"/>
<path d="M45.7251 50.5516H39.8251C39.4339 50.5516 39.0587 50.3848 38.7821 50.0878C38.5055 49.7908 38.3501 49.3879 38.3501 48.9679V42.633C38.3501 42.213 38.5055 41.8102 38.7821 41.5132C39.0587 41.2162 39.4339 41.0493 39.8251 41.0493H45.7251C46.1163 41.0493 46.4915 41.2162 46.7681 41.5132C47.0447 41.8102 47.2001 42.213 47.2001 42.633V48.9679C47.2001 49.3879 47.0447 49.7908 46.7681 50.0878C46.4915 50.3848 46.1163 50.5516 45.7251 50.5516ZM41.3001 47.3842H44.2501V44.2168H41.3001V47.3842Z" fill="#5D7AFC"/>
<path d="M16.2251 49.0945H13.2751C12.8839 49.0945 12.5087 48.9276 12.2321 48.6306C11.9555 48.3336 11.8 47.9308 11.8 47.5108C11.8 47.0908 11.9555 46.688 12.2321 46.391C12.5087 46.094 12.8839 45.9271 13.2751 45.9271H16.2251C16.6163 45.9271 16.9914 46.094 17.268 46.391C17.5447 46.688 17.7001 47.0908 17.7001 47.5108C17.7001 47.9308 17.5447 48.3336 17.268 48.6306C16.9914 48.9276 16.6163 49.0945 16.2251 49.0945Z" fill="#3D3D3D"/>
<path d="M33.925 49.0945H30.975C30.5838 49.0945 30.2086 48.9276 29.932 48.6306C29.6554 48.3336 29.5 47.9308 29.5 47.5108C29.5 47.0908 29.6554 46.688 29.932 46.391C30.2086 46.094 30.5838 45.9271 30.975 45.9271H33.925C34.3162 45.9271 34.6914 46.094 34.968 46.391C35.2446 46.688 35.4 47.0908 35.4 47.5108C35.4 47.9308 35.2446 48.3336 34.968 48.6306C34.6914 48.9276 34.3162 49.0945 33.925 49.0945Z" fill="#3D3D3D"/>
<path d="M25.0752 49.0945H22.1251C21.734 49.0945 21.3588 48.9276 21.0822 48.6306C20.8055 48.3336 20.6501 47.9308 20.6501 47.5108C20.6501 47.0908 20.8055 46.688 21.0822 46.391C21.3588 46.094 21.734 45.9271 22.1251 45.9271H25.0752C25.4663 45.9271 25.8415 46.094 26.1181 46.391C26.3948 46.688 26.5502 47.0908 26.5502 47.5108C26.5502 47.9308 26.3948 48.3336 26.1181 48.6306C25.8415 48.9276 25.4663 49.0945 25.0752 49.0945Z" fill="#3D3D3D"/>
<path d="M7.37502 50.6782H1.475C1.08381 50.6782 0.708635 50.5114 0.432019 50.2144C0.155402 49.9174 0 49.5146 0 49.0945V42.7598C0 42.3398 0.155402 41.937 0.432019 41.64C0.708635 41.343 1.08381 41.1761 1.475 41.1761H7.37502C7.76621 41.1761 8.14139 41.343 8.418 41.64C8.69462 41.937 8.85002 42.3398 8.85002 42.7598V49.0945C8.85002 49.5146 8.69462 49.9174 8.418 50.2144C8.14139 50.5114 7.76621 50.6782 7.37502 50.6782ZM2.95001 47.5109H5.90001V44.3435H2.95001V47.5109Z" fill="#5D7AFC"/>
<path d="M4.42496 38.0087C4.03376 38.0087 3.65859 37.8418 3.38197 37.5448C3.10535 37.2478 2.94995 36.845 2.94995 36.425V33.2576C2.94995 32.8376 3.10535 32.4348 3.38197 32.1378C3.65859 31.8408 4.03376 31.674 4.42496 31.674C4.81615 31.674 5.19133 31.8408 5.46794 32.1378C5.74456 32.4348 5.89996 32.8376 5.89996 33.2576V36.425C5.89996 36.845 5.74456 37.2478 5.46794 37.5448C5.19133 37.8418 4.81615 38.0087 4.42496 38.0087Z" fill="#3D3D3D"/>
<path d="M4.42496 19.0044C4.03376 19.0044 3.65859 18.8375 3.38197 18.5405C3.10535 18.2435 2.94995 17.8407 2.94995 17.4207V14.2534C2.94995 13.8333 3.10535 13.4305 3.38197 13.1335C3.65859 12.8365 4.03376 12.6697 4.42496 12.6697C4.81615 12.6697 5.19133 12.8365 5.46794 13.1335C5.74456 13.4305 5.89996 13.8333 5.89996 14.2534V17.4207C5.89996 17.8407 5.74456 18.2435 5.46794 18.5405C5.19133 18.8375 4.81615 19.0044 4.42496 19.0044Z" fill="#3D3D3D"/>
<path d="M4.42496 28.5066C4.03376 28.5066 3.65859 28.3397 3.38197 28.0427C3.10535 27.7457 2.94995 27.3429 2.94995 26.9229V23.7556C2.94995 23.3355 3.10535 22.9327 3.38197 22.6357C3.65859 22.3387 4.03376 22.1719 4.42496 22.1719C4.81615 22.1719 5.19133 22.3387 5.46794 22.6357C5.74456 22.9327 5.89996 23.3355 5.89996 23.7556V26.9229C5.89996 27.3429 5.74456 27.7457 5.46794 28.0427C5.19133 28.3397 4.81615 28.5066 4.42496 28.5066Z" fill="#3D3D3D"/>
<path d="M42.7753 38.0087C42.3841 38.0087 42.0089 37.8418 41.7323 37.5448C41.4557 37.2478 41.3003 36.845 41.3003 36.425V33.2576C41.3003 32.8376 41.4557 32.4348 41.7323 32.1378C42.0089 31.8408 42.3841 31.674 42.7753 31.674C43.1665 31.674 43.5417 31.8408 43.8183 32.1378C44.0949 32.4348 44.2503 32.8376 44.2503 33.2576V36.425C44.2503 36.845 44.0949 37.2478 43.8183 37.5448C43.5417 37.8418 43.1665 38.0087 42.7753 38.0087Z" fill="#3D3D3D"/>
<path d="M42.7753 19.0044C42.3841 19.0044 42.0089 18.8375 41.7323 18.5405C41.4557 18.2435 41.3003 17.8407 41.3003 17.4207V14.2534C41.3003 13.8333 41.4557 13.4305 41.7323 13.1335C42.0089 12.8365 42.3841 12.6697 42.7753 12.6697C43.1665 12.6697 43.5417 12.8365 43.8183 13.1335C44.0949 13.4305 44.2503 13.8333 44.2503 14.2534V17.4207C44.2503 17.8407 44.0949 18.2435 43.8183 18.5405C43.5417 18.8375 43.1665 19.0044 42.7753 19.0044Z" fill="#3D3D3D"/>
<path d="M42.7753 28.5066C42.3841 28.5066 42.0089 28.3397 41.7323 28.0427C41.4557 27.7457 41.3003 27.3429 41.3003 26.9229V23.7556C41.3003 23.3355 41.4557 22.9327 41.7323 22.6357C42.0089 22.3387 42.3841 22.1719 42.7753 22.1719C43.1665 22.1719 43.5417 22.3387 43.8183 22.6357C44.0949 22.9327 44.2503 23.3355 44.2503 23.7556V26.9229C44.2503 27.3429 44.0949 27.7457 43.8183 28.0427C43.5417 28.3397 43.1665 28.5066 42.7753 28.5066Z" fill="#3D3D3D"/>
<path d="M20.65 39.5924H11.8C11.4088 39.5924 11.0336 39.4256 10.757 39.1286C10.4804 38.8316 10.325 38.4287 10.325 38.0087V30.0903C10.325 29.6703 10.4804 29.2674 10.757 28.9704C11.0336 28.6734 11.4088 28.5066 11.8 28.5066H20.65C21.0412 28.5066 21.4163 28.6734 21.693 28.9704C21.9696 29.2674 22.125 29.6703 22.125 30.0903V38.0087C22.125 38.4287 21.9696 38.8316 21.693 39.1286C21.4163 39.4256 21.0412 39.5924 20.65 39.5924ZM13.275 36.425H19.175V31.674H13.275V36.425Z" fill="#3D3D3D"/>
<path d="M35.4002 39.5924H26.5502C26.159 39.5924 25.7838 39.4256 25.5072 39.1286C25.2306 38.8316 25.0752 38.4287 25.0752 38.0087V30.0903C25.0752 29.6703 25.2306 29.2674 25.5072 28.9704C25.7838 28.6734 26.159 28.5066 26.5502 28.5066H35.4002C35.7914 28.5066 36.1666 28.6734 36.4432 28.9704C36.7198 29.2674 36.8752 29.6703 36.8752 30.0903V38.0087C36.8752 38.4287 36.7198 38.8316 36.4432 39.1286C36.1666 39.4256 35.7914 39.5924 35.4002 39.5924ZM28.0252 36.425H33.9252V31.674H28.0252V36.425Z" fill="#3D3D3D"/>
<path d="M36.8749 12.3688C36.7864 11.8621 36.8749 12.0679 36.7274 11.9096C36.668 11.7702 36.5884 11.6419 36.4914 11.5295L36.0194 11.2127C35.5179 11.086 11.7998 11.086 11.6671 11.086C11.4292 11.0825 11.1983 11.1726 11.0181 11.3394C10.9071 11.389 10.8068 11.4623 10.7231 11.5549C10.6394 11.6475 10.5741 11.7574 10.5313 11.8779L10.4428 12.0046C10.2437 16.1194 10.2437 20.2426 10.4428 24.3575C10.5624 24.6397 10.7526 24.8809 10.9921 25.0542C11.2316 25.2276 11.5112 25.3262 11.7998 25.3394H35.3999C35.6853 25.3292 35.9627 25.2352 36.2019 25.0677C36.4412 24.9002 36.6331 24.6655 36.7569 24.3891C36.8749 23.9774 36.8749 12.9548 36.8749 12.3688ZM13.2748 15.0928L19.9271 18.2602L13.2748 21.3326V15.0928ZM18.8503 14.2534H28.3494L23.5998 16.4865L18.8503 14.2534ZM23.5998 19.9389L28.3494 22.172H18.8503L23.5998 19.9389ZM27.2726 18.2127L33.9249 15.0453V21.2851L27.2726 18.2127Z" fill="#3D3D3D"/>
<path d="M29.3409 66.2586C29.3409 64.8524 29.6144 63.4617 30.1437 62.1754C30.6731 60.8892 31.4468 59.7359 32.4152 58.7892C33.3837 57.8425 34.5255 57.1233 35.7677 56.6777C37.0099 56.2321 38.3251 56.0699 39.6291 56.2014C40.933 56.3329 42.197 56.7553 43.3402 57.4415C44.4834 58.1278 45.4805 59.0627 46.2678 60.1865C47.055 61.3103 47.6151 62.5982 47.9121 63.9677C48.2091 65.3373 48.2365 66.7583 47.9926 68.1399C47.9632 68.3058 47.9037 68.4637 47.8175 68.6049C47.7313 68.746 47.6201 68.8675 47.4901 68.9625C47.3602 69.0575 47.2141 69.124 47.0601 69.1584C46.9062 69.1927 46.7475 69.1942 46.5931 69.1627C46.4387 69.1312 46.2915 69.0673 46.1601 68.9748C46.0286 68.8822 45.9154 68.7628 45.827 68.6232C45.7385 68.4837 45.6765 68.3268 45.6445 68.1616C45.6125 67.9963 45.6112 67.8259 45.6405 67.6601C45.9169 66.0674 45.7105 64.4214 45.0515 62.9639C44.3925 61.5064 43.3157 60.3141 41.9791 59.562C40.6426 58.81 39.1166 58.5378 37.6254 58.7854C36.1341 59.033 34.7561 59.7874 33.6935 60.9378C32.631 62.0883 31.9399 63.5741 31.7218 65.1773C31.5037 66.7805 31.77 68.4165 32.4816 69.8452C33.1933 71.2739 34.3127 72.42 35.6757 73.1153C37.0387 73.8106 38.5734 74.0184 40.0544 73.7083C40.3663 73.6447 40.689 73.7167 40.9515 73.9085C41.2139 74.1003 41.3946 74.3962 41.4539 74.7311C41.5132 75.0659 41.4461 75.4124 41.2675 75.6942C41.0888 75.9759 40.8132 76.17 40.5013 76.2336C39.1377 76.5112 37.7337 76.4614 36.3901 76.0877C35.0465 75.7141 33.7965 75.0259 32.7298 74.0725C31.663 73.1191 30.806 71.924 30.2201 70.5731C29.6342 69.2222 29.334 67.7488 29.3409 66.2586Z" fill="#5D7AFC"/>
<path d="M44.6288 95.6535L41.5476 84.2895C41.4863 84.126 41.4574 83.9506 41.463 83.7744C41.4686 83.5983 41.5085 83.4254 41.58 83.2668C41.6516 83.1082 41.7533 82.9674 41.8786 82.8536C42.0039 82.7397 42.15 82.6553 42.3075 82.6057C42.465 82.5561 42.6304 82.5425 42.7931 82.5657C42.9559 82.5889 43.1122 82.6484 43.2522 82.7404C43.3922 82.8324 43.5128 82.9548 43.606 83.0998C43.6993 83.2448 43.7633 83.4092 43.7938 83.5824L46.0047 91.512L50.603 79.6681C50.7223 79.3595 50.9507 79.1144 51.238 78.9862L62.2691 74.0492L39.3014 66.8519L42.4767 78.5317C42.5272 78.694 42.5464 78.8657 42.5332 79.0363C42.52 79.2069 42.4746 79.3728 42.3998 79.524C42.325 79.6752 42.2223 79.8084 42.0981 79.9157C41.9738 80.0229 41.8306 80.1019 41.677 80.1479C41.3776 80.2417 41.0557 80.2039 40.7822 80.0429C40.5088 79.8818 40.3061 79.6108 40.2187 79.2893L36.3967 65.3493C36.3209 65.1238 36.3065 64.8798 36.3551 64.6458C36.4038 64.4118 36.5135 64.1976 36.6714 64.028C36.8292 63.8585 37.0288 63.7407 37.2467 63.6885C37.4647 63.6363 37.6919 63.6518 37.902 63.7331L66.1264 72.5718C66.3585 72.6465 66.5635 72.7963 66.7133 73.0008C66.863 73.2053 66.9503 73.4545 66.9632 73.7143C66.9761 73.9741 66.9139 74.2318 66.7852 74.4523C66.6564 74.6727 66.4674 74.845 66.244 74.9457L52.5787 81.1075L46.8868 95.7798C46.8037 96.0391 46.6443 96.2624 46.4326 96.4158C46.221 96.5692 45.9685 96.6445 45.7135 96.6302C45.4584 96.616 45.2146 96.513 45.0189 96.3368C44.8232 96.1605 44.6863 95.9207 44.6288 95.6535Z" fill="#3D3D3D"/>
</svg>
