<svg width="90" height="90" viewBox="0 0 90 90" fill="none" xmlns="http://www.w3.org/2000/svg">
<g clip-path="url(#clip0)">
<path d="M7.5 1.875H67.5C68.4946 1.875 69.4484 2.27009 70.1517 2.97335C70.8549 3.67661 71.25 4.63044 71.25 5.625V46.875H3.75V5.625C3.75 4.63044 4.14509 3.67661 4.84835 2.97335C5.55161 2.27009 6.50544 1.875 7.5 1.875Z" fill="white"/>
<path d="M73.125 48.75H1.875V5.625C1.875 4.13316 2.46763 2.70242 3.52252 1.64752C4.57742 0.592632 6.00816 0 7.5 0L67.5 0C68.9918 0 70.4226 0.592632 71.4775 1.64752C72.5324 2.70242 73.125 4.13316 73.125 5.625V48.75ZM5.625 45H69.375V5.625C69.375 5.12772 69.1775 4.65081 68.8258 4.29917C68.4742 3.94754 67.9973 3.75 67.5 3.75H7.5C7.00272 3.75 6.5258 3.94754 6.17417 4.29917C5.82254 4.65081 5.625 5.12772 5.625 5.625V45Z" fill="#3D3D3D"/>
<path d="M1.875 46.875H73.125V50.625C73.125 52.6141 72.3348 54.5218 70.9283 55.9283C69.5218 57.3348 67.6141 58.125 65.625 58.125H9.375C7.38588 58.125 5.47822 57.3348 4.0717 55.9283C2.66518 54.5218 1.875 52.6141 1.875 50.625V46.875Z" fill="#5D7AFC"/>
<path d="M65.625 60H9.375C6.88859 60 4.50403 59.0123 2.74587 57.2541C0.98772 55.496 0 53.1114 0 50.625L0 45H75V50.625C75 53.1114 74.0123 55.496 72.2541 57.2541C70.496 59.0123 68.1114 60 65.625 60ZM3.75 48.75V50.625C3.75 52.1168 4.34263 53.5476 5.39752 54.6025C6.45242 55.6574 7.88316 56.25 9.375 56.25H65.625C67.1168 56.25 68.5476 55.6574 69.6025 54.6025C70.6573 53.5476 71.25 52.1168 71.25 50.625V48.75H3.75Z" fill="#3D3D3D"/>
<path d="M5.625 44.9999L25.4812 25.1437C26.1839 24.4453 27.1343 24.0532 28.125 24.0532C29.1157 24.0532 30.0661 24.4453 30.7687 25.1437L34.8562 29.2312C35.5589 29.9296 36.5093 30.3217 37.5 30.3217C38.4907 30.3217 39.4411 29.9296 40.1437 29.2312L49.8562 19.5187C50.5588 18.8203 51.5093 18.4282 52.5 18.4282C53.4907 18.4282 54.4411 18.8203 55.1437 19.5187L69.375 33.7499V44.9999H5.625Z" fill="#959595"/>
<path d="M30 48.75H45V50.625C45 51.1223 44.8025 51.5992 44.4508 51.9508C44.0992 52.3025 43.6223 52.5 43.125 52.5H31.875C31.3777 52.5 30.9008 52.3025 30.5492 51.9508C30.1975 51.5992 30 51.1223 30 50.625V48.75Z" fill="white"/>
<path d="M84.375 31.875H58.125C56.0539 31.875 54.375 33.5539 54.375 35.625V84.375C54.375 86.4461 56.0539 88.125 58.125 88.125H84.375C86.4461 88.125 88.125 86.4461 88.125 84.375V35.625C88.125 33.5539 86.4461 31.875 84.375 31.875Z" fill="white"/>
<path d="M84.375 90H58.125C56.6332 90 55.2024 89.4074 54.1475 88.3525C53.0926 87.2976 52.5 85.8668 52.5 84.375V35.625C52.5 34.1332 53.0926 32.7024 54.1475 31.6475C55.2024 30.5926 56.6332 30 58.125 30H84.375C85.8668 30 87.2976 30.5926 88.3525 31.6475C89.4074 32.7024 90 34.1332 90 35.625V84.375C90 85.8668 89.4074 87.2976 88.3525 88.3525C87.2976 89.4074 85.8668 90 84.375 90ZM58.125 33.75C57.6277 33.75 57.1508 33.9475 56.7992 34.2992C56.4475 34.6508 56.25 35.1277 56.25 35.625V84.375C56.25 84.8723 56.4475 85.3492 56.7992 85.7008C57.1508 86.0525 57.6277 86.25 58.125 86.25H84.375C84.8723 86.25 85.3492 86.0525 85.7008 85.7008C86.0525 85.3492 86.25 84.8723 86.25 84.375V35.625C86.25 35.1277 86.0525 34.6508 85.7008 34.2992C85.3492 33.9475 84.8723 33.75 84.375 33.75H58.125Z" fill="#3D3D3D"/>
<path d="M88.125 35.625V39.375H75C75 40.3696 74.6049 41.3234 73.9017 42.0266C73.1984 42.7299 72.2446 43.125 71.25 43.125C70.2554 43.125 69.3016 42.7299 68.5984 42.0266C67.8951 41.3234 67.5 40.3696 67.5 39.375H54.375V35.625C54.375 34.6304 54.7701 33.6766 55.4734 32.9734C56.1766 32.2701 57.1304 31.875 58.125 31.875H84.375C85.3696 31.875 86.3234 32.2701 87.0267 32.9734C87.7299 33.6766 88.125 34.6304 88.125 35.625Z" fill="#5D7AFC"/>
<path d="M65.9437 41.25H52.5V35.625C52.5 34.1332 53.0926 32.7024 54.1475 31.6475C55.2024 30.5926 56.6332 30 58.125 30H84.375C85.8668 30 87.2976 30.5926 88.3525 31.6475C89.4074 32.7024 90 34.1332 90 35.625V41.25H76.5563C76.1697 42.3487 75.4517 43.3004 74.5012 43.9736C73.5507 44.6468 72.4147 45.0084 71.25 45.0084C70.0853 45.0084 68.9493 44.6468 67.9988 43.9736C67.0483 43.3004 66.3303 42.3487 65.9437 41.25ZM56.25 37.5H69.375V39.375C69.375 39.8723 69.5725 40.3492 69.9242 40.7008C70.2758 41.0525 70.7527 41.25 71.25 41.25C71.7473 41.25 72.2242 41.0525 72.5758 40.7008C72.9275 40.3492 73.125 39.8723 73.125 39.375V37.5H86.25V35.625C86.25 35.1277 86.0525 34.6508 85.7008 34.2992C85.3492 33.9475 84.8723 33.75 84.375 33.75H58.125C57.6277 33.75 57.1508 33.9475 56.7992 34.2992C56.4475 34.6508 56.25 35.1277 56.25 35.625V37.5Z" fill="#3D3D3D"/>
<path d="M54.375 80.625H88.125V84.375C88.125 85.3696 87.7299 86.3234 87.0267 87.0267C86.3234 87.7299 85.3696 88.125 84.375 88.125H58.125C57.1304 88.125 56.1766 87.7299 55.4734 87.0267C54.7701 86.3234 54.375 85.3696 54.375 84.375V80.625Z" fill="#5D7AFC"/>
<path d="M84.375 90H58.125C56.6332 90 55.2024 89.4074 54.1475 88.3525C53.0926 87.2976 52.5 85.8668 52.5 84.375V78.75H90V84.375C90 85.8668 89.4074 87.2976 88.3525 88.3525C87.2976 89.4074 85.8668 90 84.375 90ZM56.25 82.5V84.375C56.25 84.8723 56.4475 85.3492 56.7992 85.7008C57.1508 86.0525 57.6277 86.25 58.125 86.25H84.375C84.8723 86.25 85.3492 86.0525 85.7008 85.7008C86.0525 85.3492 86.25 84.8723 86.25 84.375V82.5H56.25Z" fill="#3D3D3D"/>
<path d="M16.875 20.625C19.9816 20.625 22.5 18.1066 22.5 15C22.5 11.8934 19.9816 9.375 16.875 9.375C13.7684 9.375 11.25 11.8934 11.25 15C11.25 18.1066 13.7684 20.625 16.875 20.625Z" fill="#5D7AFC"/>
<path d="M56.25 75L67.5 63.75C67.9987 63.2553 68.6726 62.9778 69.375 62.9778C70.0774 62.9778 70.7513 63.2553 71.25 63.75C71.751 64.2401 72.4241 64.5146 73.125 64.5146C73.8259 64.5146 74.499 64.2401 75 63.75L78.75 60C79.2487 59.5053 79.9226 59.2278 80.625 59.2278C81.3274 59.2278 82.0013 59.5053 82.5 60L86.25 63.75V78.75H56.25V75Z" fill="#959595"/>
<path d="M65.625 58.125C67.6961 58.125 69.375 56.4461 69.375 54.375C69.375 52.3039 67.6961 50.625 65.625 50.625C63.5539 50.625 61.875 52.3039 61.875 54.375C61.875 56.4461 63.5539 58.125 65.625 58.125Z" fill="#5D7AFC"/>
</g>
<defs>
<clipPath id="clip0">
<rect width="90" height="90" fill="white"/>
</clipPath>
</defs>
</svg>
