<svg width="87" height="90" viewBox="0 0 87 90" fill="none" xmlns="http://www.w3.org/2000/svg">
<g clip-path="url(#clip0)">
<path d="M21.733 88.125C20.7723 88.125 19.851 87.7299 19.1717 87.0267C18.4925 86.3234 18.1108 85.3696 18.1108 84.375V5.625C18.1108 4.63044 18.4925 3.67661 19.1717 2.97335C19.851 2.27009 20.7723 1.875 21.733 1.875H65.1989C66.1596 1.875 67.0809 2.27009 67.7602 2.97335C68.4394 3.67661 68.8211 4.63044 68.8211 5.625V84.375C68.8211 85.3696 68.4394 86.3234 67.7602 87.0267C67.0809 87.7299 66.1596 88.125 65.1989 88.125H21.733Z" fill="#5D7AFC"/>
<path d="M68.8211 5.625V9.375H48.6275C48.2436 9.34711 47.861 9.44658 47.5354 9.65898C47.2097 9.87138 46.9579 10.1857 46.8165 10.5563C46.5783 11.3065 46.1174 11.9598 45.4995 12.4229C44.8816 12.886 44.1382 13.1353 43.3754 13.1353C42.6126 13.1353 41.8692 12.886 41.2513 12.4229C40.6334 11.9598 40.1725 11.3065 39.9343 10.5563C39.7929 10.1857 39.5411 9.87138 39.2154 9.65898C38.8898 9.44658 38.5072 9.34711 38.1233 9.375H18.1108V5.625C18.1108 4.63044 18.4925 3.67661 19.1717 2.97335C19.851 2.27009 20.7723 1.875 21.733 1.875H65.1989C66.1596 1.875 67.0809 2.27009 67.7602 2.97335C68.4394 3.67661 68.8211 4.63044 68.8211 5.625Z" fill="white"/>
<path d="M18.1108 76.8749H68.8211V84.3749C68.8211 85.3694 68.4394 86.3233 67.7602 87.0265C67.0809 87.7298 66.1596 88.1249 65.1989 88.1249H21.733C20.7723 88.1249 19.851 87.7298 19.1717 87.0265C18.4925 86.3233 18.1108 85.3694 18.1108 84.3749V76.8749Z" fill="white"/>
<path d="M38.0326 26.2499V54.3749L32.5994 50.6249H7.24427C5.80329 50.6249 4.42132 50.0323 3.40239 48.9774C2.38346 47.9225 1.81104 46.4917 1.81104 44.9999V26.2499C1.81104 24.758 2.38346 23.3273 3.40239 22.2724C4.42132 21.2175 5.80329 20.6249 7.24427 20.6249H32.5994C34.0404 20.6249 35.4223 21.2175 36.4413 22.2724C37.4602 23.3273 38.0326 24.758 38.0326 26.2499Z" fill="white"/>
<path d="M49.4612 41.25V66L54.857 61.5H80.0372C81.4683 61.5 82.8407 60.7888 83.8526 59.523C84.8645 58.2571 85.433 56.5402 85.433 54.75V41.25C85.433 39.4598 84.8645 37.7429 83.8526 36.477C82.8407 35.2112 81.4683 34.5 80.0372 34.5H54.857C53.4259 34.5 52.0535 35.2112 51.0416 36.477C50.0297 37.7429 49.4612 39.4598 49.4612 41.25Z" fill="white"/>
<path d="M79.6875 33.75H70.6321V5.625C70.6321 4.13316 70.0597 2.70242 69.0407 1.64752C68.0218 0.592632 66.6398 3.72529e-09 65.1989 3.72529e-09C17.3139 3.72529e-09 21.0991 -0.28125 19.1793 0.65625C18.4571 1.06562 17.832 1.63647 17.3495 2.32731C16.8671 3.01814 16.5394 3.81161 16.3903 4.65C16.2997 5.11875 16.2997 5.4375 16.2997 18.75H7.24432C5.32301 18.75 3.48038 19.5402 2.12181 20.9467C0.763238 22.3532 0 24.2609 0 26.25L0 45C0 46.9891 0.763238 48.8968 2.12181 50.3033C3.48038 51.7098 5.32301 52.5 7.24432 52.5H16.2997C16.2997 87.9188 16.0824 85.125 16.9336 87.0188C17.3503 87.8407 17.957 88.543 18.6997 89.0632C19.4423 89.5834 20.2977 89.9052 21.1896 90C21.6967 90 18.5998 90 65.1989 90C66.2839 89.9974 67.3434 89.6584 68.2407 89.0268C69.1381 88.3952 69.8322 87.4999 70.2337 86.4563C70.7951 85.0875 70.6321 86.0063 70.6321 63.75H79.6875C81.6088 63.75 83.4514 62.9598 84.81 61.5533C86.1686 60.1468 86.9318 58.2391 86.9318 56.25V41.25C86.9318 39.2609 86.1686 37.3532 84.81 35.9467C83.4514 34.5402 81.6088 33.75 79.6875 33.75ZM19.9219 5.625C19.9219 5.12772 20.1127 4.65081 20.4523 4.29918C20.792 3.94754 21.2526 3.75 21.733 3.75H65.1989C65.6792 3.75 66.1398 3.94754 66.4795 4.29918C66.8191 4.65081 67.0099 5.12772 67.0099 5.625V7.5H48.6275C47.8945 7.51035 47.1819 7.75068 46.5836 8.18924C45.9854 8.62779 45.5298 9.24393 45.277 9.95625C45.1579 10.3314 44.9274 10.658 44.6185 10.8896C44.3095 11.1211 43.9379 11.2458 43.5565 11.2458C43.1751 11.2458 42.8034 11.1211 42.4944 10.8896C42.1855 10.658 41.955 10.3314 41.8359 9.95625C41.5728 9.21349 41.0895 8.57592 40.4552 8.13475C39.8209 7.69357 39.068 7.4714 38.3043 7.5H19.9219V5.625ZM7.24432 48.75C6.28366 48.75 5.36235 48.3549 4.68306 47.6516C4.00378 46.9484 3.62216 45.9946 3.62216 45V26.25C3.62216 25.2554 4.00378 24.3016 4.68306 23.5984C5.36235 22.8951 6.28366 22.5 7.24432 22.5H32.5994C33.5601 22.5 34.4814 22.8951 35.1607 23.5984C35.84 24.3016 36.2216 25.2554 36.2216 26.25V50.8688L33.1428 48.75H7.24432ZM67.0099 84.375C67.0099 84.8723 66.8191 85.3492 66.4795 85.7008C66.1398 86.0525 65.6792 86.25 65.1989 86.25H21.733C21.2526 86.25 20.792 86.0525 20.4523 85.7008C20.1127 85.3492 19.9219 84.8723 19.9219 84.375V78.75H67.0099V84.375ZM67.0099 75H19.9219V52.5H32.0561L39.8438 57.8813V26.25C39.8438 24.2609 39.0805 22.3532 37.7219 20.9467C36.3634 19.5402 34.5207 18.75 32.5994 18.75H19.9219V11.25H38.3043C38.6616 12.3754 39.353 13.3553 40.2798 14.0499C41.2067 14.7446 42.3217 15.1186 43.4659 15.1186C44.6101 15.1186 45.7252 14.7446 46.652 14.0499C47.5788 13.3553 48.2702 12.3754 48.6275 11.25H67.0099V33.75H54.3324C52.4111 33.75 50.5685 34.5402 49.2099 35.9467C47.8513 37.3532 47.0881 39.2609 47.0881 41.25V69.1313L54.8757 63.75H67.0099V75ZM83.3097 56.25C83.3097 57.2446 82.928 58.1984 82.2488 58.9017C81.5695 59.6049 80.6482 60 79.6875 60H53.7891L50.7102 62.1188V41.25C50.7102 40.2554 51.0918 39.3016 51.7711 38.5984C52.4504 37.8951 53.3717 37.5 54.3324 37.5H79.6875C80.6482 37.5 81.5695 37.8951 82.2488 38.5984C82.928 39.3016 83.3097 40.2554 83.3097 41.25V56.25Z" fill="#3D3D3D"/>
<path d="M25.2226 38.8221C24.9556 38.7067 24.7031 38.5695 24.4871 38.3672C23.8742 37.7968 23.4635 37.1111 23.362 36.2669C23.319 35.8696 23.319 35.4659 23.4123 35.0686C23.5349 34.5421 23.7874 34.0799 24.1697 33.6899C24.4149 33.4445 24.6673 33.2065 24.9125 32.9611C25.0643 32.8092 25.0927 32.5858 24.9628 32.4201C24.6885 32.0739 24.3857 31.749 24.0252 31.4817C23.5779 31.1429 23.073 30.9114 22.525 30.7814C22.1353 30.6944 21.7465 30.6441 21.3422 30.6806C20.6717 30.7456 20.0295 30.9333 19.3955 31.1494C18.8906 31.3151 18.4002 31.3655 17.8815 31.2144C17.2832 31.034 16.6776 30.8683 16.0501 30.796C15.408 30.7237 14.7886 30.7667 14.1821 30.9983C13.4247 31.2867 12.841 31.7774 12.3718 32.4347C12.026 32.9181 11.7662 33.4453 11.5933 34.0149C11.3912 34.6713 11.2978 35.3497 11.2978 35.7177C11.2686 36.6918 11.3628 37.3418 11.5 37.9837C11.6079 38.4744 11.7597 38.9505 11.9399 39.4201C12.3653 40.5388 12.9206 41.5779 13.678 42.5016C14.0815 42.9923 14.5434 43.418 15.1271 43.678C15.5021 43.8437 15.8918 43.9087 16.2879 43.8437C16.706 43.7787 17.1103 43.6276 17.5065 43.4757C17.7589 43.3822 18.0114 43.2953 18.2777 43.2523C18.7031 43.1799 19.1073 43.2596 19.5108 43.3822C19.9362 43.5122 20.3469 43.6634 20.7723 43.7795C21.4144 43.9526 22.0054 43.873 22.568 43.5269C23.2678 43.0939 23.7865 42.4805 24.2411 41.8094C24.7461 41.0514 25.1715 40.2503 25.445 39.3779C25.5327 39.1325 25.454 38.9164 25.2226 38.8221Z" fill="#3D3D3D"/>
<path d="M18.3578 30.3783C18.4301 30.371 18.5097 30.3637 18.5811 30.3564C19.0933 30.3133 19.5764 30.2045 20.009 29.9014C20.3338 29.6707 20.6147 29.4034 20.8671 29.1004C21.1772 28.725 21.437 28.3139 21.5953 27.8517C21.7106 27.5194 21.7471 27.166 21.7828 26.8199C21.8047 26.6103 21.8047 26.4088 21.8185 26.1992C21.8405 25.8742 21.6164 25.6142 21.256 25.7011C20.8955 25.7881 20.5424 25.8961 20.2031 26.0546C19.6908 26.2926 19.2224 26.5956 18.862 27.0433C18.2134 27.8444 17.9317 28.7827 17.874 29.7999V29.9656C17.8748 30.2557 18.0697 30.4222 18.3578 30.3783Z" fill="#3D3D3D"/>
<path d="M71.2389 47.6655H64.2143C63.8914 47.6655 63.6289 47.9282 63.6289 48.2514V53.0708C63.6387 53.4848 63.8279 53.8744 64.1489 54.1371C64.4689 54.3997 64.8875 54.51 65.2953 54.4378V56.7109C65.2953 57.034 65.5577 57.2967 65.8807 57.2967C66.2036 57.2967 66.4661 57.034 66.4661 56.7109V54.4378H69.0184V56.7109C69.0184 57.034 69.2808 57.2967 69.6038 57.2967C69.9267 57.2967 70.1892 57.034 70.1892 56.7109V54.4378C70.597 54.51 71.0155 54.3997 71.3355 54.1371C71.6565 53.8744 71.8458 53.4848 71.8555 53.0708V48.2514C71.8555 48.0903 71.7902 47.936 71.6731 47.8257C71.557 47.7154 71.3998 47.6567 71.2389 47.6655Z" fill="#3D3D3D"/>
<path d="M69.7879 42.7835L70.6698 41.4049C70.8444 41.1305 70.7644 40.7673 70.4903 40.5925C70.2161 40.4177 69.8532 40.4978 69.6786 40.7722L68.6444 42.3852C68.0317 42.2914 67.4073 42.2914 66.7946 42.3852L65.7761 40.7722C65.5946 40.5193 65.2463 40.4529 64.9848 40.6218C64.7224 40.7907 64.6385 41.1344 64.7926 41.4049L65.6746 42.7835C65.056 43.1165 64.5389 43.6105 64.1779 44.214C63.816 44.8164 63.6248 45.5058 63.6218 46.2088C63.6218 46.532 63.8843 46.7946 64.2072 46.7946H71.2395C71.5625 46.7946 71.8249 46.532 71.8249 46.2088C71.8239 45.5077 71.6347 44.8193 71.2756 44.2169C70.9176 43.6135 70.4035 43.1185 69.7879 42.7835Z" fill="#3D3D3D"/>
<path d="M73.4172 47.6654C73.0942 47.6654 72.8318 47.9281 72.8318 48.2513V51.3367C72.8318 51.6599 73.0942 51.9226 73.4172 51.9226C73.7401 51.9226 74.0026 51.6599 74.0026 51.3367V48.2513C74.0026 48.096 73.9411 47.9466 73.8309 47.8373C73.7216 47.7269 73.5723 47.6654 73.4172 47.6654L73.4172 47.6654Z" fill="#3D3D3D"/>
<path d="M62.0373 47.6654C61.7144 47.6654 61.4519 47.9281 61.4519 48.2513V51.3367C61.4519 51.6599 61.7144 51.9226 62.0373 51.9226C62.3602 51.9226 62.6227 51.6599 62.6227 51.3367V48.2513C62.6227 48.096 62.5612 47.9466 62.451 47.8373C62.3417 47.7269 62.1924 47.6654 62.0373 47.6654L62.0373 47.6654Z" fill="#3D3D3D"/>
</g>
<defs>
<clipPath id="clip0">
<rect width="86.9318" height="90" fill="white"/>
</clipPath>
</defs>
</svg>
